<?xml version="1.0" encoding="utf-8"?>
<!-- Generator: Adobe Illustrator 25.0.0, SVG Export Plug-In . SVG Version: 6.00 Build 0)  -->
<svg version="1.1" id="Frase" xmlns="http://www.w3.org/2000/svg" xmlns:xlink="http://www.w3.org/1999/xlink" x="0px" y="0px"
	 viewBox="0 0 1024 1024" style="enable-background:new 0 0 1024 1024;" xml:space="preserve">
<style type="text/css">
	.st0{fill:none;}
	.st1{fill:#192E50;}
	.st2{font-family:'Lexend-Bold';}
	.st3{font-size:114.4734px;}
	.st4{fill:#FBC461;}
	.st5{fill:#FAC360;}
</style>
<rect x="238.03" y="282.05" class="st0" width="749.34" height="400.31"/>
<text transform="matrix(1 0 0 1 238.0253 366.7635)"><tspan x="0" y="0" class="st1 st2 st3">A paz </tspan><tspan x="0" y="130.5" class="st1 st2 st3">começa no </tspan><tspan x="0" y="261" class="st1 st2 st3">diálogo</tspan><tspan x="444.95" y="261" class="st4 st2 st3">.</tspan></text>
<circle class="st4" cx="172.01" cy="200.59" r="49.16"/>
<circle class="st4" cx="503.44" cy="215.05" r="26.62"/>
<circle class="st4" cx="145.39" cy="765.08" r="26.62"/>
<circle class="st4" cx="724.01" cy="334.02" r="23.18"/>
<circle class="st4" cx="104.53" cy="500.92" r="23.18"/>
<circle class="st4" cx="876.01" cy="654.09" r="34.06"/>
<circle class="st4" cx="583.5" cy="765.08" r="34.06"/>
<g>
	<g>
		<path class="st5" d="M309.53,686.85c-1.17-2.2-2.71-4.29-4.56-6.21c-1.11-1.16-2.34-2.26-3.66-3.29c-1.66-1.29-3.46-2.46-5.4-3.48
			c-0.31-0.17-0.63-0.33-0.94-0.48c-4.83-2.4-9.94-3.66-14.73-3.66h-26.19v28.77c0.01,0.23,0.27,5.89,3.46,12.58
			c2.95,6.18,9.07,14.47,21.46,18.83l0.61,0.21l0.61-0.21c12.4-4.35,18.48-12.65,21.4-18.83c0.39-0.83,0.74-1.65,1.05-2.44
			c0.94-0.36,1.82-0.78,2.63-1.27c2.21-1.32,3.96-3.12,5.13-5.31C312.72,697.66,312.41,692.26,309.53,686.85z M257.7,673.38h10.39
			c-1.52,1.18-2.74,2.62-3.63,4.29c-0.38,0.72-0.7,1.47-0.93,2.24c-2.31,0.85-4.28,2.09-5.82,3.7V673.38z M279.57,726.23
			c-8.64-3.18-14.93-8.76-18.7-16.6c-0.56-1.16-1.02-2.29-1.4-3.35c2.74,3.32,6.37,6.24,10.57,8.47c5.1,2.71,10.57,4.14,15.67,4.14
			c0.91,0,1.82-0.05,2.71-0.14c1.46-0.16,2.83-0.43,4.11-0.82C289.09,721.54,284.76,724.32,279.57,726.23z M271.75,711.52
			c-8.22-4.37-13.55-11.39-14.05-17.59c-0.05-0.63-0.05-1.26,0-1.87c0.11-1.33,0.47-2.6,1.09-3.77c0.9-1.7,2.3-3.07,4.11-4.08
			c0.03,2.78,0.83,5.73,2.41,8.68c2.76,5.17,7.6,9.78,13.62,12.98c5.1,2.71,10.57,4.14,15.67,4.14c0.91,0,1.82-0.05,2.7-0.14
			c0.21-0.02,0.42-0.05,0.63-0.08C293.88,716.32,282.34,717.14,271.75,711.52z M299.31,705.85c-5.27,1.25-12.15,0.23-18.66-3.23
			c-9.23-4.9-14.81-13.14-14.01-19.83c0.76-0.18,1.56-0.32,2.39-0.4c0.77-0.08,1.55-0.12,2.34-0.12c4.5,0,9.37,1.29,13.94,3.72
			C294.55,690.9,300.14,699.16,299.31,705.85z M307.15,700.34c-0.72,1.36-1.74,2.49-3,3.39c-0.35,0.26-0.72,0.49-1.11,0.71
			c-0.02-2.36-0.6-4.83-1.74-7.32c-0.2-0.46-0.43-0.91-0.67-1.37c-2.76-5.17-7.6-9.78-13.61-12.98c-6.02-3.2-12.55-4.62-18.38-4
			c-0.21,0.02-0.42,0.05-0.63,0.08c1.84-2.97,5.33-4.85,9.9-5.33c0.77-0.08,1.55-0.12,2.34-0.12c4.5,0,9.37,1.29,13.94,3.72
			c2.71,1.44,5.1,3.16,7.11,5.05c1.42,1.33,2.65,2.75,3.66,4.2C308.29,691.11,309.3,696.29,307.15,700.34z"/>
	</g>
	<g>
		<path class="st5" d="M319.7,690.12l4.31-10.89h2.24l4.28,10.89h-2.67l-2.05-5.52c-0.08-0.22-0.17-0.45-0.25-0.7
			c-0.08-0.25-0.17-0.51-0.25-0.77c-0.08-0.26-0.16-0.52-0.24-0.78c-0.08-0.25-0.14-0.49-0.19-0.71l0.47-0.02
			c-0.06,0.26-0.13,0.51-0.21,0.76c-0.08,0.25-0.16,0.49-0.23,0.74c-0.08,0.24-0.16,0.49-0.26,0.73c-0.09,0.24-0.18,0.5-0.26,0.75
			l-2.05,5.51H319.7z M321.76,688.04l0.82-1.99h5.01l0.81,1.99H321.76z"/>
		<path class="st5" d="M335.24,693.7c-0.67,0-1.35-0.1-2.01-0.3c-0.67-0.2-1.21-0.45-1.62-0.76l0.87-1.74
			c0.22,0.15,0.46,0.27,0.72,0.38c0.26,0.11,0.54,0.19,0.83,0.26c0.29,0.06,0.59,0.09,0.89,0.09c0.53,0,0.96-0.08,1.29-0.23
			c0.33-0.16,0.58-0.39,0.75-0.71c0.17-0.32,0.25-0.71,0.25-1.19v-1.38l0.48,0.08c-0.07,0.34-0.25,0.65-0.54,0.93
			c-0.29,0.28-0.64,0.51-1.05,0.68c-0.41,0.17-0.86,0.26-1.32,0.26c-0.75,0-1.41-0.17-2-0.52c-0.59-0.35-1.05-0.83-1.38-1.45
			c-0.34-0.62-0.51-1.33-0.51-2.14c0-0.83,0.17-1.56,0.5-2.2c0.33-0.64,0.79-1.14,1.37-1.51c0.58-0.37,1.23-0.55,1.96-0.55
			c0.31,0,0.61,0.04,0.89,0.11c0.28,0.07,0.55,0.17,0.79,0.29c0.24,0.12,0.46,0.26,0.65,0.42s0.35,0.33,0.47,0.52
			c0.12,0.19,0.2,0.38,0.24,0.58l-0.51,0.12l0.09-1.87h2.36v7.59c0,0.67-0.1,1.27-0.3,1.8c-0.2,0.52-0.5,0.97-0.89,1.34
			c-0.39,0.37-0.86,0.65-1.41,0.83C336.56,693.61,335.93,693.7,335.24,693.7z M335.3,688.13c0.4,0,0.75-0.09,1.05-0.27
			c0.3-0.18,0.52-0.43,0.68-0.75c0.16-0.32,0.24-0.7,0.24-1.14c0-0.44-0.08-0.82-0.24-1.14c-0.16-0.33-0.39-0.58-0.68-0.76
			c-0.3-0.18-0.65-0.27-1.05-0.27c-0.39,0-0.74,0.09-1.03,0.27c-0.29,0.18-0.52,0.44-0.68,0.76c-0.16,0.33-0.24,0.71-0.24,1.14
			c0,0.44,0.08,0.81,0.24,1.14c0.16,0.32,0.39,0.57,0.68,0.75C334.57,688.04,334.91,688.13,335.3,688.13z"/>
		<path class="st5" d="M341.86,690.12v-8.26h2.36l0.11,2.69l-0.47-0.51c0.12-0.45,0.33-0.85,0.61-1.2c0.28-0.35,0.62-0.63,1-0.84
			c0.38-0.21,0.79-0.31,1.23-0.31c0.19,0,0.36,0.02,0.52,0.05c0.16,0.03,0.31,0.07,0.44,0.11L347,684.6
			c-0.11-0.07-0.27-0.13-0.46-0.18c-0.19-0.05-0.39-0.07-0.6-0.07c-0.23,0-0.44,0.04-0.64,0.12c-0.2,0.08-0.36,0.19-0.5,0.33
			c-0.13,0.15-0.24,0.32-0.32,0.51c-0.08,0.2-0.12,0.42-0.12,0.67v4.14H341.86z"/>
		<path class="st5" d="M351.76,690.29c-0.61,0-1.13-0.13-1.56-0.4c-0.43-0.26-0.76-0.65-1-1.14c-0.23-0.5-0.35-1.09-0.35-1.79v-5.1
			h2.5v4.76c0,0.33,0.05,0.62,0.16,0.86c0.1,0.24,0.26,0.42,0.47,0.55c0.21,0.13,0.46,0.19,0.75,0.19c0.22,0,0.42-0.04,0.6-0.11
			c0.18-0.07,0.34-0.17,0.47-0.3c0.13-0.13,0.23-0.28,0.3-0.45c0.07-0.17,0.11-0.36,0.11-0.57v-4.93h2.5v8.26h-2.35l-0.11-1.7
			l0.47-0.19c-0.12,0.39-0.33,0.74-0.62,1.05c-0.29,0.31-0.64,0.55-1.04,0.73C352.64,690.2,352.21,690.29,351.76,690.29z"/>
		<path class="st5" d="M358.92,693.54v-11.68h2.36l0.09,1.85l-0.47-0.14c0.07-0.34,0.25-0.65,0.53-0.93
			c0.28-0.28,0.63-0.51,1.07-0.68c0.43-0.17,0.88-0.26,1.36-0.26c0.7,0,1.33,0.18,1.88,0.55c0.55,0.37,0.98,0.87,1.3,1.51
			c0.32,0.64,0.47,1.38,0.47,2.22c0,0.83-0.16,1.57-0.47,2.21c-0.32,0.64-0.75,1.15-1.31,1.52c-0.55,0.37-1.19,0.55-1.9,0.55
			c-0.47,0-0.91-0.09-1.34-0.26c-0.43-0.18-0.78-0.41-1.07-0.72c-0.29-0.3-0.48-0.63-0.58-0.98l0.58-0.22v5.46H358.92z
			 M363.23,688.16c0.37,0,0.7-0.09,0.98-0.27s0.5-0.43,0.65-0.75c0.16-0.32,0.23-0.7,0.23-1.15c0-0.44-0.08-0.82-0.23-1.14
			c-0.16-0.33-0.37-0.58-0.65-0.76c-0.27-0.18-0.6-0.27-0.99-0.27c-0.38,0-0.72,0.09-1,0.26s-0.5,0.43-0.65,0.76
			c-0.16,0.33-0.23,0.72-0.23,1.15c0,0.45,0.08,0.83,0.23,1.15c0.16,0.32,0.37,0.57,0.65,0.75S362.85,688.16,363.23,688.16z"/>
		<path class="st5" d="M372.22,690.26c-0.69,0-1.31-0.18-1.86-0.55c-0.54-0.37-0.98-0.88-1.3-1.52c-0.32-0.65-0.48-1.38-0.48-2.2
			c0-0.84,0.16-1.58,0.48-2.22c0.32-0.64,0.76-1.15,1.32-1.52c0.56-0.37,1.2-0.55,1.91-0.55c0.39,0,0.75,0.06,1.08,0.17
			c0.33,0.11,0.61,0.27,0.86,0.47c0.25,0.2,0.46,0.44,0.64,0.7c0.18,0.26,0.31,0.55,0.39,0.85l-0.51-0.06v-1.96h2.47v8.26h-2.52
			v-1.99l0.56-0.02c-0.08,0.29-0.22,0.57-0.4,0.82c-0.19,0.26-0.41,0.49-0.68,0.68c-0.27,0.2-0.57,0.35-0.9,0.47
			C372.95,690.21,372.59,690.26,372.22,690.26z M372.9,688.16c0.38,0,0.72-0.09,1-0.26c0.28-0.18,0.5-0.43,0.65-0.75
			c0.16-0.33,0.23-0.71,0.23-1.16c0-0.45-0.08-0.83-0.23-1.16c-0.16-0.33-0.37-0.58-0.65-0.76c-0.28-0.18-0.61-0.27-1-0.27
			c-0.37,0-0.7,0.09-0.97,0.27c-0.27,0.18-0.49,0.44-0.65,0.76c-0.16,0.33-0.23,0.71-0.23,1.16c0,0.45,0.08,0.83,0.23,1.16
			c0.16,0.33,0.37,0.58,0.65,0.75C372.21,688.07,372.53,688.16,372.9,688.16z"/>
		<path class="st5" d="M379.4,690.12v-8.26h2.36l0.08,1.49l-0.33,0.02c0.12-0.27,0.28-0.51,0.47-0.72c0.19-0.21,0.41-0.38,0.65-0.52
			s0.5-0.25,0.76-0.32c0.26-0.07,0.53-0.11,0.8-0.11c0.4,0,0.77,0.06,1.1,0.19c0.33,0.12,0.62,0.32,0.87,0.6
			c0.25,0.27,0.45,0.65,0.59,1.11l-0.39-0.03l0.12-0.25c0.13-0.25,0.31-0.47,0.52-0.68c0.21-0.2,0.45-0.37,0.71-0.51
			c0.26-0.14,0.53-0.25,0.81-0.32c0.28-0.07,0.55-0.11,0.81-0.11c0.65,0,1.2,0.13,1.63,0.38c0.44,0.25,0.76,0.63,0.99,1.14
			c0.22,0.51,0.33,1.12,0.33,1.85v5.04h-2.5v-4.84c0-0.33-0.05-0.61-0.14-0.82c-0.09-0.22-0.23-0.38-0.41-0.49
			c-0.18-0.11-0.41-0.16-0.68-0.16c-0.22,0-0.42,0.04-0.6,0.11c-0.18,0.07-0.34,0.17-0.47,0.3c-0.13,0.12-0.23,0.27-0.3,0.44
			c-0.07,0.17-0.11,0.35-0.11,0.56v4.91h-2.5v-4.85c0-0.31-0.05-0.58-0.14-0.79c-0.09-0.22-0.23-0.38-0.42-0.5
			c-0.19-0.11-0.4-0.17-0.65-0.17c-0.22,0-0.42,0.04-0.6,0.11c-0.18,0.07-0.34,0.17-0.47,0.3c-0.13,0.12-0.23,0.27-0.3,0.44
			c-0.07,0.17-0.11,0.35-0.11,0.54v4.93H379.4z"/>
		<path class="st5" d="M398.32,690.28c-0.91,0-1.71-0.18-2.38-0.55c-0.67-0.37-1.2-0.87-1.57-1.51c-0.37-0.64-0.56-1.37-0.56-2.19
			c0-0.63,0.1-1.21,0.31-1.74c0.21-0.53,0.5-0.99,0.87-1.38c0.37-0.39,0.82-0.69,1.33-0.9c0.51-0.21,1.08-0.32,1.69-0.32
			c0.58,0,1.11,0.1,1.59,0.31c0.48,0.21,0.9,0.5,1.25,0.87c0.35,0.37,0.62,0.81,0.81,1.32c0.19,0.51,0.27,1.06,0.25,1.66l-0.02,0.67
			h-6.58l-0.36-1.4h4.91l-0.26,0.3v-0.31c-0.02-0.26-0.1-0.49-0.24-0.69c-0.14-0.2-0.32-0.36-0.55-0.47
			c-0.23-0.11-0.49-0.17-0.78-0.17c-0.4,0-0.75,0.08-1.03,0.24c-0.29,0.16-0.5,0.39-0.65,0.7c-0.15,0.31-0.22,0.68-0.22,1.13
			c0,0.46,0.1,0.85,0.29,1.19c0.19,0.34,0.47,0.6,0.84,0.79c0.37,0.19,0.81,0.28,1.31,0.28c0.35,0,0.67-0.05,0.94-0.16
			c0.27-0.1,0.57-0.28,0.89-0.53l1.17,1.65c-0.32,0.28-0.66,0.51-1.03,0.68c-0.36,0.18-0.73,0.31-1.11,0.4
			C399.06,690.23,398.69,690.28,398.32,690.28z"/>
		<path class="st5" d="M403.49,690.12v-8.26h2.36l0.08,1.68l-0.5,0.19c0.11-0.37,0.32-0.71,0.61-1.02c0.3-0.31,0.65-0.55,1.07-0.74
			c0.41-0.19,0.85-0.28,1.31-0.28c0.62,0,1.15,0.13,1.57,0.38c0.42,0.25,0.75,0.63,0.96,1.14c0.22,0.5,0.33,1.12,0.33,1.84v5.07
			h-2.5v-4.87c0-0.33-0.05-0.61-0.14-0.82c-0.09-0.22-0.24-0.38-0.43-0.49c-0.19-0.11-0.43-0.16-0.71-0.15
			c-0.22,0-0.42,0.03-0.61,0.1c-0.19,0.07-0.35,0.17-0.48,0.3c-0.13,0.13-0.24,0.28-0.32,0.44c-0.08,0.17-0.12,0.35-0.12,0.54v4.95
			h-1.23c-0.29,0-0.54,0-0.75,0C403.8,690.12,403.63,690.12,403.49,690.12z"/>
		<path class="st5" d="M412.59,684.04v-2.18h5.55v2.18H412.59z M414.05,690.12v-10.34h2.49v10.34H414.05z"/>
		<path class="st5" d="M423.37,690.28c-0.86,0-1.63-0.19-2.29-0.56c-0.67-0.37-1.2-0.88-1.59-1.52c-0.39-0.64-0.58-1.38-0.58-2.21
			c0-0.83,0.19-1.57,0.58-2.21c0.39-0.64,0.92-1.15,1.59-1.52c0.67-0.37,1.43-0.56,2.29-0.56c0.86,0,1.62,0.19,2.29,0.56
			c0.67,0.37,1.19,0.88,1.58,1.52c0.38,0.64,0.58,1.38,0.58,2.21c0,0.83-0.19,1.57-0.58,2.21c-0.38,0.64-0.91,1.15-1.58,1.52
			C424.99,690.09,424.23,690.28,423.37,690.28z M423.37,688.13c0.37,0,0.7-0.09,1-0.28c0.29-0.19,0.52-0.44,0.68-0.76
			c0.17-0.32,0.24-0.69,0.23-1.1c0.01-0.41-0.07-0.79-0.23-1.11c-0.17-0.33-0.39-0.58-0.68-0.77c-0.29-0.19-0.62-0.28-1-0.28
			c-0.37,0-0.71,0.09-1,0.28c-0.3,0.19-0.53,0.44-0.69,0.77c-0.17,0.33-0.24,0.7-0.23,1.11c-0.01,0.41,0.07,0.78,0.23,1.1
			c0.17,0.32,0.4,0.58,0.69,0.76C422.66,688.04,422.99,688.13,423.37,688.13z"/>
		<path class="st5" d="M437.55,690.29c-0.72,0-1.35-0.18-1.91-0.55c-0.55-0.37-0.99-0.88-1.31-1.52c-0.32-0.65-0.48-1.39-0.48-2.22
			s0.16-1.57,0.48-2.22c0.32-0.65,0.76-1.16,1.32-1.53c0.56-0.37,1.2-0.56,1.93-0.56c0.37,0,0.73,0.06,1.07,0.17
			c0.34,0.11,0.65,0.27,0.93,0.47s0.51,0.42,0.68,0.68c0.18,0.25,0.28,0.52,0.31,0.79l-0.59,0.14v-5.32h2.5v11.51h-2.32l-0.14-1.88
			l0.5,0.08c-0.03,0.26-0.13,0.51-0.3,0.75c-0.17,0.24-0.39,0.45-0.66,0.63c-0.27,0.18-0.58,0.33-0.93,0.44
			C438.3,690.24,437.93,690.29,437.55,690.29z M438.19,688.22c0.38,0,0.72-0.09,1-0.28c0.28-0.19,0.5-0.45,0.65-0.78
			c0.15-0.33,0.23-0.72,0.23-1.17c0-0.46-0.08-0.85-0.23-1.18c-0.15-0.33-0.37-0.59-0.65-0.78c-0.28-0.19-0.61-0.28-1-0.28
			c-0.38,0-0.71,0.09-0.99,0.28c-0.27,0.19-0.49,0.45-0.65,0.78c-0.16,0.33-0.23,0.73-0.23,1.18c0,0.45,0.08,0.83,0.23,1.17
			c0.16,0.33,0.37,0.59,0.65,0.78C437.47,688.13,437.8,688.22,438.19,688.22z"/>
		<path class="st5" d="M448.53,690.28c-0.91,0-1.71-0.18-2.38-0.55c-0.67-0.37-1.2-0.87-1.57-1.51c-0.37-0.64-0.56-1.37-0.56-2.19
			c0-0.63,0.1-1.21,0.31-1.74c0.21-0.53,0.5-0.99,0.87-1.38c0.37-0.39,0.82-0.69,1.33-0.9c0.51-0.21,1.08-0.32,1.69-0.32
			c0.58,0,1.11,0.1,1.59,0.31c0.48,0.21,0.9,0.5,1.25,0.87c0.35,0.37,0.62,0.81,0.81,1.32c0.19,0.51,0.27,1.06,0.25,1.66l-0.02,0.67
			h-6.58l-0.36-1.4h4.91l-0.26,0.3v-0.31c-0.02-0.26-0.1-0.49-0.24-0.69c-0.14-0.2-0.32-0.36-0.55-0.47
			c-0.23-0.11-0.49-0.17-0.78-0.17c-0.4,0-0.75,0.08-1.03,0.24c-0.29,0.16-0.5,0.39-0.65,0.7c-0.15,0.31-0.22,0.68-0.22,1.13
			c0,0.46,0.1,0.85,0.29,1.19c0.19,0.34,0.47,0.6,0.84,0.79c0.37,0.19,0.81,0.28,1.31,0.28c0.35,0,0.67-0.05,0.94-0.16
			c0.27-0.1,0.57-0.28,0.89-0.53l1.17,1.65c-0.32,0.28-0.66,0.51-1.03,0.68c-0.36,0.18-0.73,0.31-1.11,0.4
			C449.28,690.23,448.9,690.28,448.53,690.28z"/>
		<path class="st5" d="M321.09,708.78V697.9h7.59v2.26h-5.02v6.38h5.18v2.25H321.09z M322.33,704.32v-2.15h5.64v2.15H322.33z"/>
		<path class="st5" d="M333.64,708.94c-0.81,0-1.52-0.13-2.14-0.39c-0.62-0.26-1.11-0.61-1.47-1.04l1.51-1.31
			c0.32,0.32,0.68,0.56,1.09,0.71c0.4,0.15,0.79,0.23,1.15,0.23c0.15,0,0.27-0.02,0.39-0.05c0.11-0.03,0.21-0.08,0.29-0.13
			c0.08-0.06,0.14-0.12,0.18-0.2c0.04-0.08,0.06-0.17,0.06-0.27c0-0.21-0.09-0.37-0.28-0.48c-0.09-0.05-0.25-0.11-0.47-0.19
			c-0.22-0.07-0.5-0.16-0.84-0.25c-0.49-0.12-0.91-0.27-1.27-0.44c-0.36-0.17-0.65-0.37-0.88-0.6c-0.21-0.22-0.37-0.46-0.48-0.72
			c-0.11-0.26-0.17-0.56-0.17-0.89c0-0.38,0.09-0.73,0.27-1.04c0.18-0.31,0.42-0.58,0.73-0.81c0.31-0.23,0.66-0.4,1.06-0.52
			c0.4-0.12,0.81-0.18,1.24-0.18c0.46,0,0.89,0.05,1.31,0.16c0.41,0.1,0.8,0.25,1.16,0.44c0.36,0.19,0.68,0.41,0.96,0.67l-1.31,1.46
			c-0.19-0.18-0.4-0.33-0.63-0.47s-0.47-0.25-0.72-0.33c-0.25-0.08-0.48-0.12-0.68-0.12c-0.16,0-0.29,0.01-0.41,0.04
			c-0.12,0.03-0.22,0.07-0.3,0.12c-0.08,0.06-0.15,0.12-0.19,0.2c-0.04,0.08-0.06,0.17-0.06,0.27s0.03,0.2,0.09,0.3
			c0.06,0.09,0.14,0.17,0.24,0.23c0.1,0.06,0.27,0.13,0.5,0.21c0.23,0.08,0.54,0.17,0.93,0.29c0.49,0.13,0.91,0.29,1.26,0.45
			c0.35,0.17,0.63,0.36,0.84,0.59c0.17,0.18,0.29,0.38,0.37,0.61c0.08,0.23,0.12,0.48,0.12,0.75c0,0.53-0.15,1-0.44,1.41
			c-0.3,0.41-0.7,0.73-1.22,0.96C334.89,708.82,334.3,708.94,333.64,708.94z"/>
		<path class="st5" d="M342.18,708.94c-0.8,0-1.51-0.19-2.15-0.56c-0.63-0.37-1.13-0.88-1.5-1.53c-0.37-0.65-0.55-1.38-0.55-2.2
			c0-0.82,0.18-1.55,0.55-2.2c0.37-0.65,0.87-1.16,1.5-1.53c0.63-0.37,1.35-0.56,2.15-0.56c0.74,0,1.41,0.13,2.03,0.39
			c0.62,0.26,1.11,0.62,1.47,1.09l-1.35,1.62c-0.15-0.17-0.32-0.32-0.51-0.47c-0.2-0.14-0.41-0.26-0.65-0.34
			c-0.24-0.08-0.49-0.12-0.75-0.12c-0.39,0-0.74,0.09-1.04,0.27c-0.3,0.18-0.53,0.43-0.7,0.75c-0.17,0.32-0.25,0.69-0.25,1.1
			c0,0.39,0.09,0.75,0.26,1.07c0.17,0.32,0.41,0.58,0.71,0.76c0.3,0.19,0.64,0.28,1.03,0.28c0.27,0,0.52-0.03,0.75-0.1
			c0.23-0.07,0.44-0.17,0.63-0.3c0.19-0.13,0.37-0.3,0.54-0.5l1.34,1.63c-0.35,0.45-0.84,0.8-1.47,1.06
			C343.56,708.81,342.89,708.94,342.18,708.94z"/>
		<path class="st5" d="M350.92,708.94c-0.86,0-1.63-0.19-2.29-0.56c-0.67-0.37-1.2-0.88-1.59-1.52c-0.39-0.64-0.58-1.38-0.58-2.21
			c0-0.83,0.19-1.57,0.58-2.21c0.39-0.64,0.92-1.15,1.59-1.52c0.67-0.37,1.43-0.56,2.29-0.56c0.86,0,1.62,0.19,2.29,0.56
			c0.67,0.37,1.19,0.88,1.58,1.52c0.38,0.64,0.58,1.38,0.58,2.21c0,0.83-0.19,1.57-0.58,2.21c-0.38,0.64-0.91,1.15-1.58,1.52
			C352.54,708.75,351.78,708.94,350.92,708.94z M350.92,706.79c0.37,0,0.7-0.09,1-0.28c0.29-0.19,0.52-0.44,0.68-0.76
			c0.17-0.32,0.24-0.69,0.23-1.1c0.01-0.41-0.07-0.79-0.23-1.11c-0.17-0.33-0.39-0.58-0.68-0.77c-0.29-0.19-0.62-0.28-1-0.28
			s-0.71,0.09-1,0.28c-0.3,0.19-0.53,0.44-0.69,0.77c-0.17,0.33-0.24,0.7-0.23,1.11c-0.01,0.42,0.07,0.78,0.23,1.1
			c0.17,0.32,0.4,0.58,0.69,0.76C350.21,706.7,350.54,706.79,350.92,706.79z"/>
		<path class="st5" d="M357.01,708.78v-11.51h2.49v11.51H357.01z"/>
		<path class="st5" d="M364.62,708.92c-0.69,0-1.31-0.18-1.86-0.55c-0.54-0.37-0.98-0.88-1.3-1.52c-0.32-0.65-0.48-1.38-0.48-2.2
			c0-0.84,0.16-1.58,0.48-2.22c0.32-0.64,0.76-1.15,1.32-1.52c0.56-0.37,1.2-0.55,1.91-0.55c0.39,0,0.75,0.06,1.08,0.17
			c0.33,0.11,0.61,0.27,0.86,0.47c0.25,0.2,0.46,0.44,0.64,0.7c0.18,0.26,0.31,0.55,0.39,0.85l-0.51-0.06v-1.96h2.47v8.26h-2.52
			v-1.99l0.56-0.02c-0.08,0.29-0.22,0.57-0.4,0.82c-0.19,0.26-0.41,0.49-0.68,0.68c-0.27,0.2-0.57,0.35-0.9,0.47
			C365.34,708.87,364.99,708.92,364.62,708.92z M365.3,706.82c0.38,0,0.72-0.09,1-0.26s0.5-0.43,0.65-0.75
			c0.16-0.33,0.23-0.71,0.23-1.16c0-0.45-0.08-0.83-0.23-1.16c-0.16-0.33-0.37-0.58-0.65-0.76s-0.61-0.27-1-0.27
			c-0.37,0-0.7,0.09-0.97,0.27c-0.27,0.18-0.49,0.44-0.65,0.76c-0.16,0.33-0.23,0.71-0.23,1.16c0,0.45,0.08,0.83,0.23,1.16
			c0.16,0.33,0.37,0.58,0.65,0.75C364.6,706.74,364.93,706.82,365.3,706.82z"/>
		<path class="st5" d="M374.6,708.94c-0.81,0-1.52-0.13-2.14-0.39c-0.62-0.26-1.11-0.61-1.47-1.04l1.51-1.31
			c0.32,0.32,0.68,0.56,1.09,0.71c0.4,0.15,0.79,0.23,1.15,0.23c0.15,0,0.27-0.02,0.39-0.05c0.11-0.03,0.21-0.08,0.29-0.13
			c0.08-0.06,0.14-0.12,0.18-0.2c0.04-0.08,0.06-0.17,0.06-0.27c0-0.21-0.09-0.37-0.28-0.48c-0.09-0.05-0.25-0.11-0.47-0.19
			c-0.22-0.07-0.5-0.16-0.84-0.25c-0.49-0.12-0.91-0.27-1.27-0.44c-0.36-0.17-0.65-0.37-0.88-0.6c-0.21-0.22-0.37-0.46-0.48-0.72
			c-0.11-0.26-0.17-0.56-0.17-0.89c0-0.38,0.09-0.73,0.27-1.04c0.18-0.31,0.42-0.58,0.73-0.81c0.31-0.23,0.66-0.4,1.06-0.52
			c0.4-0.12,0.81-0.18,1.24-0.18c0.46,0,0.89,0.05,1.31,0.16c0.41,0.1,0.8,0.25,1.16,0.44c0.36,0.19,0.68,0.41,0.96,0.67l-1.31,1.46
			c-0.19-0.18-0.4-0.33-0.63-0.47s-0.47-0.25-0.72-0.33c-0.25-0.08-0.48-0.12-0.68-0.12c-0.16,0-0.29,0.01-0.41,0.04
			c-0.12,0.03-0.22,0.07-0.3,0.12c-0.08,0.06-0.15,0.12-0.19,0.2c-0.04,0.08-0.06,0.17-0.06,0.27s0.03,0.2,0.09,0.3
			c0.06,0.09,0.14,0.17,0.24,0.23c0.1,0.06,0.27,0.13,0.5,0.21c0.23,0.08,0.54,0.17,0.93,0.29c0.49,0.13,0.91,0.29,1.26,0.45
			c0.35,0.17,0.63,0.36,0.84,0.59c0.17,0.18,0.29,0.38,0.37,0.61c0.08,0.23,0.12,0.48,0.12,0.75c0,0.53-0.15,1-0.44,1.41
			c-0.3,0.41-0.7,0.73-1.22,0.96C375.85,708.82,375.26,708.94,374.6,708.94z"/>
		<path class="st5" d="M387.62,708.95c-0.72,0-1.35-0.18-1.91-0.55c-0.55-0.37-0.99-0.88-1.31-1.52c-0.32-0.65-0.48-1.39-0.48-2.22
			c0-0.83,0.16-1.57,0.48-2.22c0.32-0.65,0.76-1.16,1.32-1.53c0.56-0.37,1.2-0.56,1.93-0.56c0.37,0,0.73,0.06,1.07,0.17
			c0.34,0.11,0.65,0.27,0.93,0.47c0.28,0.2,0.51,0.42,0.68,0.68c0.18,0.25,0.28,0.52,0.31,0.79l-0.59,0.14v-5.32h2.5v11.51h-2.32
			l-0.14-1.88l0.5,0.08c-0.03,0.26-0.13,0.51-0.3,0.75c-0.17,0.24-0.39,0.45-0.66,0.63c-0.27,0.18-0.58,0.33-0.93,0.44
			C388.36,708.9,388,708.95,387.62,708.95z M388.25,706.89c0.38,0,0.72-0.09,1-0.28c0.28-0.19,0.5-0.45,0.65-0.78
			c0.15-0.33,0.23-0.72,0.23-1.17c0-0.46-0.08-0.85-0.23-1.18c-0.15-0.33-0.37-0.59-0.65-0.78c-0.28-0.19-0.61-0.28-1-0.28
			c-0.38,0-0.71,0.09-0.99,0.28c-0.27,0.19-0.49,0.45-0.65,0.78c-0.16,0.33-0.23,0.73-0.23,1.18c0,0.45,0.08,0.83,0.23,1.17
			c0.16,0.33,0.37,0.59,0.65,0.78C387.54,706.79,387.87,706.89,388.25,706.89z"/>
		<path class="st5" d="M397.71,708.92c-0.69,0-1.31-0.18-1.86-0.55c-0.54-0.37-0.98-0.88-1.3-1.52c-0.32-0.65-0.48-1.38-0.48-2.2
			c0-0.84,0.16-1.58,0.48-2.22c0.32-0.64,0.76-1.15,1.32-1.52c0.56-0.37,1.2-0.55,1.91-0.55c0.39,0,0.75,0.06,1.08,0.17
			c0.33,0.11,0.61,0.27,0.86,0.47c0.25,0.2,0.46,0.44,0.64,0.7c0.18,0.26,0.31,0.55,0.39,0.85l-0.51-0.06v-1.96h2.47v8.26h-2.52
			v-1.99l0.56-0.02c-0.08,0.29-0.22,0.57-0.4,0.82c-0.19,0.26-0.41,0.49-0.68,0.68c-0.27,0.2-0.57,0.35-0.9,0.47
			C398.43,708.87,398.08,708.92,397.71,708.92z M398.39,706.82c0.38,0,0.72-0.09,1-0.26s0.5-0.43,0.65-0.75
			c0.16-0.33,0.23-0.71,0.23-1.16c0-0.45-0.08-0.83-0.23-1.16c-0.16-0.33-0.37-0.58-0.65-0.76s-0.61-0.27-1-0.27
			c-0.37,0-0.7,0.09-0.97,0.27c-0.27,0.18-0.49,0.44-0.65,0.76c-0.16,0.33-0.23,0.71-0.23,1.16c0,0.45,0.08,0.83,0.23,1.16
			c0.16,0.33,0.37,0.58,0.65,0.75C397.7,706.74,398.02,706.82,398.39,706.82z"/>
		<path class="st5" d="M413.76,708.94c-0.72,0-1.36-0.09-1.94-0.26c-0.58-0.17-1.09-0.42-1.53-0.75c-0.45-0.33-0.85-0.71-1.2-1.16
			l1.6-1.82c0.52,0.69,1.04,1.16,1.56,1.4c0.52,0.24,1.07,0.36,1.62,0.36c0.28,0,0.53-0.04,0.76-0.11c0.23-0.07,0.4-0.18,0.53-0.32
			s0.19-0.31,0.19-0.52c0-0.16-0.04-0.3-0.12-0.42c-0.08-0.12-0.18-0.23-0.32-0.33c-0.13-0.09-0.3-0.18-0.48-0.26
			c-0.19-0.08-0.38-0.15-0.59-0.2c-0.21-0.06-0.42-0.11-0.64-0.15c-0.6-0.13-1.12-0.3-1.57-0.5c-0.45-0.2-0.82-0.44-1.11-0.72
			c-0.3-0.29-0.52-0.61-0.66-0.98c-0.15-0.37-0.22-0.78-0.22-1.24c0-0.49,0.11-0.94,0.33-1.35c0.22-0.41,0.52-0.76,0.9-1.06
			c0.38-0.3,0.82-0.52,1.31-0.68c0.5-0.16,1.02-0.24,1.56-0.24c0.72,0,1.33,0.08,1.84,0.23c0.51,0.15,0.95,0.37,1.32,0.65
			c0.37,0.28,0.68,0.62,0.94,1.01l-1.63,1.57c-0.22-0.27-0.45-0.49-0.71-0.67c-0.25-0.18-0.52-0.31-0.81-0.4
			c-0.29-0.09-0.58-0.14-0.88-0.14c-0.31,0-0.58,0.04-0.8,0.12c-0.22,0.08-0.4,0.19-0.52,0.33c-0.12,0.14-0.19,0.31-0.19,0.51
			c0,0.18,0.05,0.33,0.16,0.45c0.1,0.12,0.24,0.24,0.42,0.33c0.18,0.1,0.38,0.18,0.61,0.25c0.23,0.07,0.47,0.12,0.72,0.16
			c0.57,0.11,1.09,0.26,1.55,0.45c0.46,0.19,0.86,0.41,1.2,0.68c0.34,0.27,0.6,0.59,0.78,0.96c0.18,0.37,0.27,0.8,0.27,1.28
			c0,0.76-0.18,1.4-0.55,1.92c-0.37,0.52-0.87,0.92-1.51,1.2C415.32,708.8,414.59,708.94,413.76,708.94z"/>
		<path class="st5" d="M423.68,708.94c-0.91,0-1.71-0.18-2.38-0.55c-0.67-0.37-1.2-0.87-1.57-1.51c-0.37-0.64-0.56-1.37-0.56-2.18
			c0-0.63,0.1-1.21,0.31-1.74c0.21-0.53,0.5-0.99,0.87-1.38c0.37-0.39,0.82-0.69,1.33-0.9c0.51-0.21,1.08-0.32,1.69-0.32
			c0.58,0,1.11,0.1,1.59,0.31c0.48,0.21,0.9,0.5,1.25,0.87c0.35,0.37,0.62,0.81,0.81,1.32c0.19,0.51,0.27,1.06,0.25,1.66l-0.02,0.67
			h-6.58l-0.36-1.4h4.91l-0.26,0.3v-0.31c-0.02-0.26-0.1-0.49-0.24-0.69c-0.14-0.2-0.32-0.36-0.55-0.47
			c-0.23-0.11-0.49-0.17-0.78-0.17c-0.4,0-0.75,0.08-1.03,0.24c-0.29,0.16-0.5,0.39-0.65,0.7c-0.15,0.31-0.22,0.68-0.22,1.13
			c0,0.46,0.1,0.85,0.29,1.19s0.47,0.6,0.84,0.79c0.37,0.19,0.81,0.28,1.31,0.28c0.35,0,0.67-0.05,0.94-0.16
			c0.27-0.1,0.57-0.28,0.89-0.53l1.17,1.65c-0.32,0.28-0.66,0.51-1.03,0.68c-0.36,0.18-0.73,0.31-1.11,0.4
			C424.43,708.89,424.05,708.94,423.68,708.94z M422.14,699.62l-0.73-1.14l2.78-2.21l1.14,1.63L422.14,699.62z"/>
		<path class="st5" d="M429.07,711.89l-0.72-0.89c0.41-0.19,0.75-0.42,1-0.71c0.25-0.29,0.37-0.53,0.37-0.74
			c0-0.09-0.02-0.19-0.07-0.3c-0.05-0.11-0.16-0.23-0.35-0.37c-0.24-0.18-0.4-0.35-0.48-0.52c-0.08-0.17-0.12-0.36-0.12-0.57
			c0-0.32,0.12-0.58,0.35-0.76c0.23-0.19,0.54-0.28,0.91-0.28c0.3,0,0.57,0.08,0.82,0.25c0.24,0.17,0.44,0.39,0.58,0.68
			c0.14,0.29,0.21,0.63,0.21,1.01c0,0.35-0.06,0.69-0.19,1.02c-0.12,0.33-0.3,0.63-0.52,0.92c-0.22,0.28-0.49,0.54-0.79,0.75
			C429.76,711.61,429.43,711.78,429.07,711.89z"/>
		<path class="st5" d="M321.09,727.45v-10.89h2.64v8.55h4.85v2.33H321.09z"/>
		<path class="st5" d="M333.03,727.59c-0.69,0-1.31-0.18-1.86-0.55c-0.54-0.37-0.98-0.88-1.3-1.52c-0.32-0.65-0.48-1.38-0.48-2.2
			c0-0.84,0.16-1.58,0.48-2.22c0.32-0.64,0.76-1.15,1.32-1.52c0.56-0.37,1.2-0.55,1.91-0.55c0.39,0,0.75,0.06,1.08,0.17
			c0.33,0.11,0.61,0.27,0.86,0.47c0.25,0.2,0.46,0.44,0.64,0.7c0.18,0.26,0.31,0.55,0.39,0.85l-0.51-0.06v-1.96h2.47v8.26h-2.52
			v-1.99l0.56-0.02c-0.08,0.29-0.22,0.57-0.4,0.82c-0.19,0.26-0.41,0.49-0.68,0.68c-0.27,0.2-0.57,0.35-0.9,0.47
			C333.76,727.53,333.41,727.59,333.03,727.59z M333.72,725.49c0.38,0,0.72-0.09,1-0.26c0.28-0.18,0.5-0.43,0.65-0.75
			c0.16-0.33,0.23-0.71,0.23-1.16c0-0.45-0.08-0.83-0.23-1.16c-0.16-0.33-0.37-0.58-0.65-0.76c-0.28-0.18-0.61-0.27-1-0.27
			c-0.37,0-0.7,0.09-0.97,0.27c-0.27,0.18-0.49,0.44-0.65,0.76c-0.16,0.33-0.23,0.71-0.23,1.16c0,0.45,0.08,0.83,0.23,1.16
			c0.16,0.33,0.37,0.58,0.65,0.75C333.02,725.4,333.34,725.49,333.72,725.49z"/>
		<path class="st5" d="M340.22,727.45v-8.26h2.36l0.08,1.49l-0.33,0.02c0.12-0.27,0.28-0.51,0.47-0.72
			c0.19-0.21,0.41-0.38,0.65-0.52s0.5-0.25,0.76-0.32c0.26-0.07,0.53-0.11,0.8-0.11c0.4,0,0.77,0.06,1.1,0.19
			c0.33,0.12,0.62,0.32,0.87,0.6c0.25,0.27,0.45,0.65,0.59,1.11l-0.39-0.03l0.12-0.25c0.13-0.25,0.31-0.47,0.52-0.68
			c0.21-0.2,0.45-0.37,0.71-0.51c0.26-0.14,0.53-0.25,0.81-0.32c0.28-0.07,0.55-0.11,0.81-0.11c0.65,0,1.2,0.13,1.63,0.38
			c0.44,0.25,0.76,0.63,0.99,1.14c0.22,0.51,0.33,1.13,0.33,1.85v5.04h-2.5v-4.84c0-0.33-0.05-0.61-0.14-0.82
			c-0.09-0.22-0.23-0.38-0.41-0.49c-0.18-0.11-0.41-0.16-0.68-0.16c-0.22,0-0.42,0.04-0.6,0.11c-0.18,0.07-0.34,0.17-0.47,0.3
			c-0.13,0.12-0.23,0.27-0.3,0.44c-0.07,0.17-0.11,0.35-0.11,0.56v4.91h-2.5v-4.85c0-0.31-0.05-0.58-0.14-0.79
			c-0.09-0.22-0.23-0.38-0.42-0.5c-0.19-0.11-0.4-0.17-0.65-0.17c-0.22,0-0.42,0.04-0.6,0.11c-0.18,0.07-0.34,0.17-0.47,0.3
			c-0.13,0.12-0.23,0.27-0.3,0.44c-0.07,0.17-0.11,0.35-0.11,0.54v4.93H340.22z"/>
		<path class="st5" d="M359.13,727.6c-0.91,0-1.71-0.18-2.38-0.55c-0.67-0.37-1.2-0.87-1.57-1.51c-0.37-0.64-0.56-1.37-0.56-2.19
			c0-0.63,0.1-1.21,0.31-1.74c0.21-0.53,0.5-0.99,0.87-1.38c0.37-0.39,0.82-0.69,1.33-0.9c0.51-0.21,1.08-0.32,1.69-0.32
			c0.58,0,1.11,0.1,1.59,0.31c0.48,0.21,0.9,0.5,1.25,0.87c0.35,0.37,0.62,0.81,0.81,1.32c0.19,0.51,0.27,1.06,0.25,1.66l-0.02,0.67
			h-6.58l-0.36-1.4h4.91l-0.26,0.3v-0.31c-0.02-0.26-0.1-0.49-0.24-0.69c-0.14-0.2-0.32-0.36-0.55-0.47
			c-0.23-0.11-0.49-0.17-0.78-0.17c-0.4,0-0.75,0.08-1.03,0.24c-0.29,0.16-0.5,0.39-0.65,0.7c-0.15,0.31-0.22,0.68-0.22,1.13
			c0,0.46,0.1,0.85,0.29,1.19c0.19,0.34,0.47,0.6,0.84,0.79c0.37,0.19,0.81,0.28,1.31,0.28c0.35,0,0.67-0.05,0.94-0.16
			c0.27-0.1,0.57-0.28,0.89-0.53l1.17,1.65c-0.32,0.28-0.66,0.51-1.03,0.68c-0.36,0.18-0.73,0.31-1.11,0.4
			C359.88,727.56,359.5,727.6,359.13,727.6z"/>
		<path class="st5" d="M368.01,731.02c-0.67,0-1.35-0.1-2.01-0.3c-0.67-0.2-1.21-0.45-1.62-0.76l0.87-1.74
			c0.22,0.15,0.46,0.27,0.72,0.38c0.26,0.11,0.54,0.19,0.83,0.26c0.29,0.06,0.59,0.09,0.89,0.09c0.53,0,0.96-0.08,1.29-0.23
			c0.33-0.16,0.58-0.39,0.75-0.71c0.17-0.32,0.25-0.71,0.25-1.19v-1.38l0.48,0.08c-0.07,0.34-0.25,0.65-0.54,0.93
			c-0.29,0.28-0.64,0.51-1.05,0.68c-0.41,0.17-0.86,0.26-1.32,0.26c-0.75,0-1.41-0.17-2-0.52c-0.59-0.35-1.05-0.83-1.38-1.45
			c-0.34-0.62-0.51-1.33-0.51-2.14c0-0.83,0.17-1.56,0.5-2.2c0.33-0.64,0.79-1.14,1.37-1.51c0.58-0.37,1.23-0.55,1.96-0.55
			c0.31,0,0.61,0.04,0.89,0.11c0.28,0.07,0.55,0.17,0.79,0.29c0.24,0.12,0.46,0.26,0.65,0.42c0.19,0.16,0.35,0.33,0.47,0.52
			c0.12,0.19,0.2,0.38,0.24,0.58l-0.51,0.12l0.09-1.87h2.36v7.59c0,0.67-0.1,1.27-0.3,1.8s-0.5,0.97-0.89,1.34
			c-0.39,0.37-0.86,0.65-1.41,0.83C369.32,730.93,368.7,731.02,368.01,731.02z M368.07,725.45c0.4,0,0.75-0.09,1.05-0.27
			c0.3-0.18,0.52-0.43,0.68-0.75c0.16-0.32,0.24-0.7,0.24-1.14c0-0.44-0.08-0.82-0.24-1.14c-0.16-0.33-0.39-0.58-0.68-0.76
			c-0.3-0.18-0.65-0.27-1.05-0.27c-0.39,0-0.74,0.09-1.03,0.27c-0.29,0.18-0.52,0.44-0.68,0.76c-0.16,0.33-0.24,0.71-0.24,1.14
			c0,0.44,0.08,0.81,0.24,1.14c0.16,0.32,0.39,0.57,0.68,0.75C367.33,725.36,367.67,725.45,368.07,725.45z"/>
		<path class="st5" d="M378.52,727.6c-0.86,0-1.63-0.19-2.29-0.56c-0.67-0.37-1.2-0.88-1.59-1.52c-0.39-0.64-0.58-1.38-0.58-2.21
			c0-0.83,0.19-1.57,0.58-2.21c0.39-0.64,0.92-1.15,1.59-1.52c0.67-0.37,1.43-0.56,2.29-0.56c0.86,0,1.62,0.19,2.29,0.56
			c0.67,0.37,1.19,0.88,1.58,1.52c0.38,0.64,0.58,1.38,0.58,2.21c0,0.83-0.19,1.57-0.58,2.21c-0.38,0.64-0.91,1.15-1.58,1.52
			S379.38,727.6,378.52,727.6z M378.52,725.45c0.37,0,0.7-0.09,1-0.28c0.29-0.19,0.52-0.44,0.68-0.76c0.17-0.32,0.24-0.69,0.23-1.1
			c0.01-0.41-0.07-0.79-0.23-1.11c-0.17-0.33-0.39-0.58-0.68-0.77c-0.29-0.19-0.62-0.28-1-0.28s-0.71,0.09-1,0.28
			c-0.3,0.19-0.53,0.44-0.69,0.77c-0.17,0.33-0.24,0.7-0.23,1.11c-0.01,0.41,0.07,0.78,0.23,1.1c0.17,0.32,0.4,0.58,0.69,0.76
			C377.81,725.36,378.15,725.45,378.52,725.45z"/>
	</g>
</g>
</svg>
